<?xml version="1.0" encoding="utf-8"?>
<!-- Generator: Adobe Illustrator 23.1.0, SVG Export Plug-In . SVG Version: 6.00 Build 0)  -->
<svg version="1.1" id="Слой_1" xmlns="http://www.w3.org/2000/svg" xmlns:xlink="http://www.w3.org/1999/xlink" x="0px" y="0px"
	 viewBox="0 0 1366 1366" enable-background="new 0 0 1366 1366" xml:space="preserve">
<g>
	<path fill="#FFFFFF" stroke="#000000" stroke-width="0.25" stroke-miterlimit="10" d="M1256,355.5H109
		C48.52,355.5-0.5,306.48-0.5,246v0c0-60.48,49.02-109.5,109.5-109.5h1147c60.48,0,109.5,49.02,109.5,109.5v0
		C1365.5,306.48,1316.48,355.5,1256,355.5z"/>
	<path fill="#FFFFFF" d="M1256.5,793h-1147C49.02,793,0,743.98,0,683.5v0C0,623.02,49.02,574,109.5,574h1147
		c60.48,0,109.5,49.02,109.5,109.5v0C1366,743.98,1316.98,793,1256.5,793z"/>
	<path fill="#FFFFFF" d="M1256.5,1230h-1147C49.02,1230,0,1180.98,0,1120.5v0c0-60.48,49.02-109.5,109.5-109.5h1147
		c60.48,0,109.5,49.02,109.5,109.5v0C1366,1180.98,1316.98,1230,1256.5,1230z"/>
</g>
</svg>
